<svg width="42" height="42" viewBox="0 0 42 42" fill="none" xmlns="http://www.w3.org/2000/svg">
<path d="M26.73 22.1299L27.41 17.7099H23.17V14.8399C23.17 13.6299 23.76 12.4499 25.66 12.4499H27.59V8.67988C27.59 8.67988 25.84 8.37988 24.16 8.37988C20.66 8.37988 18.38 10.4999 18.38 14.3299V17.6999H14.49V22.1199H18.38V32.8099H23.16V22.1199H26.73V22.1299Z" fill="white"/>
<path d="M21.0499 1.81C31.4299 1.81 39.8399 10.22 39.8399 20.6C39.8399 30.98 31.4299 39.39 21.0499 39.39C10.6699 39.39 2.24994 30.98 2.24994 20.61C2.24994 10.24 10.6699 1.81 21.0499 1.81ZM21.0499 0C9.67994 0 0.439941 9.24 0.439941 20.61C0.439941 31.98 9.67994 41.22 21.0499 41.22C32.4199 41.22 41.6599 31.98 41.6599 20.61C41.6599 9.24 32.4099 0 21.0499 0Z" fill="white"/>
</svg>
