<svg width="77" height="76" viewBox="0 0 77 76" fill="none" xmlns="http://www.w3.org/2000/svg">
<mask id="path-1-outside-1_1910_1663" maskUnits="userSpaceOnUse" x="25.2446" y="13.0062" width="26" height="54" fill="#1B3666">
<rect fill="#1B3666" x="25.2446" y="13.0062" width="26" height="54"/>
<path d="M26.4128 65.9336C26.4086 65.9336 26.4043 65.9334 26.4001 65.9331C26.3077 65.9264 26.2385 65.8459 26.2451 65.7535C27.1082 54.0168 29.9126 43.2987 34.5803 33.8968C38.7381 25.5222 44.2011 18.6557 50.3788 14.0397C50.4519 13.9841 50.558 13.9992 50.6134 14.0736C50.6688 14.1478 50.6537 14.253 50.5793 14.3084C37.1855 24.3168 28.2138 43.5579 26.58 65.7781C26.5734 65.8664 26.4997 65.9336 26.4128 65.9336Z"/>
</mask>
<path d="M26.4128 65.9336C26.4086 65.9336 26.4043 65.9334 26.4001 65.9331C26.3077 65.9264 26.2385 65.8459 26.2451 65.7535C27.1082 54.0168 29.9126 43.2987 34.5803 33.8968C38.7381 25.5222 44.2011 18.6557 50.3788 14.0397C50.4519 13.9841 50.558 13.9992 50.6134 14.0736C50.6688 14.1478 50.6537 14.253 50.5793 14.3084C37.1855 24.3168 28.2138 43.5579 26.58 65.7781C26.5734 65.8664 26.4997 65.9336 26.4128 65.9336Z" fill="#1B3666"/>
<path d="M26.4001 65.9331L26.4289 65.553L26.4277 65.5529L26.4001 65.9331ZM26.2451 65.7535L25.8649 65.7255L25.8648 65.7265L26.2451 65.7535ZM34.5803 33.8968L34.2389 33.7273L34.2389 33.7273L34.5803 33.8968ZM50.3788 14.0397L50.607 14.345L50.6095 14.3431L50.3788 14.0397ZM50.6134 14.0736L50.3077 14.3012L50.3079 14.3015L50.6134 14.0736ZM50.5793 14.3084L50.3517 14.0026L50.3512 14.003L50.5793 14.3084ZM26.58 65.7781L26.9601 65.8063L26.9601 65.806L26.58 65.7781ZM26.4128 65.5524C26.418 65.5524 26.4234 65.5526 26.4289 65.553L26.3712 66.3132C26.3853 66.3142 26.3992 66.3147 26.4128 66.3147V65.5524ZM26.4277 65.5529C26.5467 65.5616 26.6335 65.6648 26.6253 65.7805L25.8648 65.7265C25.8435 66.027 26.0686 66.2912 26.3724 66.3133L26.4277 65.5529ZM26.6252 65.7815C27.4852 54.088 30.2785 43.4189 34.9217 34.0663L34.2389 33.7273C29.5467 43.1785 26.7312 53.9455 25.8649 65.7255L26.6252 65.7815ZM34.9217 34.0663C39.0585 25.7341 44.4863 18.9185 50.607 14.345L50.1506 13.7343C43.9159 18.393 38.4177 25.3104 34.2389 33.7273L34.9217 34.0663ZM50.6095 14.3431C50.5124 14.4169 50.3779 14.3955 50.3077 14.3012L50.9192 13.8459C50.7382 13.6029 50.3913 13.5513 50.1481 13.7362L50.6095 14.3431ZM50.3079 14.3015C50.2379 14.2077 50.2564 14.0736 50.3517 14.0026L50.807 14.6141C51.0511 14.4324 51.0997 14.0879 50.9189 13.8456L50.3079 14.3015ZM50.3512 14.003C36.8419 24.0977 27.8389 43.4586 26.1998 65.7501L26.9601 65.806C28.5887 43.6573 37.529 24.5359 50.8075 14.6137L50.3512 14.003ZM26.1998 65.7498C26.2082 65.6377 26.3016 65.5524 26.4128 65.5524V66.3147C26.6978 66.3147 26.9386 66.0951 26.9601 65.8063L26.1998 65.7498Z" fill="#1B3666" mask="url(#path-1-outside-1_1910_1663)"/>
<path d="M49.7811 21.74L49.7814 21.74C49.9778 21.7582 50.1235 21.9321 50.1053 22.1297M49.7811 21.74L49.9155 22.1121M49.7811 21.74C46.637 21.4531 43.1971 22.4151 40.0887 24.4348C39.9225 24.5427 39.8759 24.7648 39.9835 24.9305L49.7811 21.74ZM50.1053 22.1297L49.9155 22.1121M50.1053 22.1297C50.1053 22.1296 50.1053 22.1296 50.1053 22.1296L49.9155 22.1121M50.1053 22.1297C50.0875 22.3231 49.9162 22.4748 49.7142 22.4537M49.9155 22.1121C49.907 22.2047 49.8254 22.2742 49.733 22.264M49.7142 22.4537C49.7147 22.4537 49.7152 22.4538 49.7156 22.4538L49.733 22.264M49.7142 22.4537C46.7462 22.1825 43.466 23.0952 40.4793 25.0358M49.7142 22.4537C49.7135 22.4536 49.7129 22.4535 49.7122 22.4535L49.733 22.264M49.733 22.264L40.4793 25.0358M40.4793 25.0358L40.3753 24.8761L40.4792 25.0359L40.4793 25.0358ZM39.9835 24.9306L40.1433 24.8268L39.9835 24.9306Z" fill="#1B3666" stroke="#1B3666" stroke-width="0.381176"/>
<path d="M40.7438 24.1997L40.7435 24.1995C40.5713 24.1023 40.5104 23.8837 40.6077 23.7114C42.0467 21.1618 42.2888 17.6068 41.2426 13.9519L40.7438 24.1997ZM40.7438 24.1997C40.7995 24.2311 40.86 24.2458 40.9198 24.2458M40.7438 24.1997L40.9198 24.2458M40.9198 24.2458C41.0438 24.2458 41.1659 24.1808 41.2319 24.0636L40.9198 24.2458ZM41.4882 13.5087C41.2977 13.5632 41.1881 13.7618 41.2425 13.9518L41.4882 13.5087Z" fill="#1B3666" stroke="#1B3666" stroke-width="0.381176"/>
<path d="M46.8658 17.047C47.1224 16.0347 47.4499 14.9158 47.9483 13.9772C48.5104 12.9187 49.2704 12.1252 50.358 11.9441C50.4596 11.9273 50.538 11.9201 50.6002 11.9201C50.7105 11.9201 50.7667 11.9422 50.8114 11.9726C50.867 12.0105 50.9179 12.0691 51.0101 12.1792L51.011 12.1803C51.1466 12.3426 51.3265 12.5581 51.6397 12.7745L46.8658 17.047ZM46.8658 17.047C48.0968 16.5536 49.6191 16.5637 50.9442 16.5725L50.9601 16.5726C51.6148 16.5766 52.2345 16.5801 52.7333 16.5204C52.9822 16.4906 53.1913 16.4461 53.3543 16.3827C53.518 16.3191 53.62 16.2425 53.6764 16.1582C53.7875 15.9918 53.7956 15.6823 53.5625 15.128L53.5625 15.128C53.4461 14.8512 53.5224 14.5805 53.5771 14.3864C53.579 14.3799 53.5808 14.3735 53.5825 14.3672L53.5826 14.3671C53.6238 14.2206 53.6569 14.0994 53.6572 13.9693C53.6575 13.8458 53.6277 13.7057 53.5229 13.5336L46.8658 17.047ZM45.9834 17.633L45.9835 17.6327L45.9857 17.6236C46.2641 16.4735 46.6196 15.0049 47.2483 13.7669C47.8791 12.5248 48.8049 11.4761 50.2405 11.2371L50.2718 11.4251L50.2403 11.2371C50.592 11.1781 50.8516 11.1955 51.0677 11.2945C51.2794 11.3914 51.4232 11.5561 51.5597 11.7195C51.6851 11.8695 51.8153 12.0247 52.0471 12.185C52.277 12.3437 52.5437 12.3945 52.8478 12.4491L52.8478 12.4491C52.854 12.4503 52.8602 12.4514 52.8664 12.4525C53.2852 12.5277 53.8066 12.6214 54.1349 13.1609C54.4985 13.7581 54.3617 14.2446 54.2733 14.5587L54.2726 14.5613L54.2725 14.5615C54.2473 14.6508 54.2297 14.7146 54.2219 14.7684C54.2144 14.8204 54.2197 14.8417 54.2232 14.8501L45.9834 17.633ZM45.9834 17.633C45.9373 17.8251 46.0552 18.0183 46.2471 18.0651M45.9834 17.633L46.2471 18.0651M52.7547 12.967L52.721 13.1546L52.7102 13.1527C52.3976 13.0965 52.0027 13.0254 51.6397 12.7745L52.7547 12.967ZM52.7547 12.967L52.721 13.1546M52.7547 12.967L52.721 13.1546M46.2471 18.0651C46.2763 18.0723 46.3051 18.0753 46.3319 18.0753C46.4072 18.0753 46.4785 18.0518 46.5375 18.0105C46.5609 18.002 46.5833 17.9909 46.6046 17.9776L46.2471 18.0651ZM52.721 13.1546C53.1407 13.2301 53.3688 13.2805 53.5229 13.5336L52.721 13.1546Z" fill="#1B3666" stroke="#1B3666" stroke-width="0.381176"/>
<mask id="path-6-outside-2_1910_1663" maskUnits="userSpaceOnUse" x="43.9785" y="18.442" width="11" height="9" fill="#1B3666">
<rect fill="#1B3666" x="43.9785" y="18.442" width="11" height="9"/>
<path d="M51.6775 26.1521C50.9746 26.1521 50.1177 25.499 49.1467 24.7584C47.9543 23.8492 46.6029 22.8187 45.2259 22.719C45.2052 22.7175 45.1856 22.7124 45.1679 22.7042C45.1125 22.7096 45.0545 22.6906 45.0165 22.6441C44.9578 22.5725 44.9683 22.4668 45.0398 22.408C46.9079 20.8767 49.7304 18.5613 52.1193 19.7872C52.7403 20.1059 52.7488 20.4279 52.7583 20.8008C52.7632 20.9976 52.7688 21.2207 52.8582 21.5109C52.9529 21.817 53.1587 22.0421 53.3576 22.2599C53.647 22.5764 53.9459 22.9038 53.8787 23.4474C53.8033 24.0573 53.454 24.3235 53.1987 24.5178C53.0532 24.6288 52.9382 24.7164 52.9067 24.8314C52.7088 25.5466 52.4116 25.962 51.9984 26.1013C51.8955 26.1358 51.7883 26.1521 51.6775 26.1521ZM45.5552 22.4199C46.9188 22.6377 48.2056 23.6188 49.3502 24.4916C50.3989 25.2912 51.3063 25.9812 51.8912 25.7832C52.191 25.6823 52.4171 25.3417 52.5833 24.742C52.6449 24.518 52.8232 24.3823 52.9955 24.2509C53.2374 24.0666 53.4877 23.8761 53.5457 23.4061C53.5939 23.016 53.3802 22.7822 53.1099 22.4863C52.8962 22.2527 52.6544 21.9879 52.5377 21.6099C52.4345 21.2755 52.428 21.0171 52.4227 20.8093C52.4139 20.4587 52.4099 20.3137 51.9659 20.0858C49.8955 19.0229 47.3487 20.9579 45.5552 22.4199Z"/>
</mask>
<path d="M51.6775 26.1521C50.9746 26.1521 50.1177 25.499 49.1467 24.7584C47.9543 23.8492 46.6029 22.8187 45.2259 22.719C45.2052 22.7175 45.1856 22.7124 45.1679 22.7042C45.1125 22.7096 45.0545 22.6906 45.0165 22.6441C44.9578 22.5725 44.9683 22.4668 45.0398 22.408C46.9079 20.8767 49.7304 18.5613 52.1193 19.7872C52.7403 20.1059 52.7488 20.4279 52.7583 20.8008C52.7632 20.9976 52.7688 21.2207 52.8582 21.5109C52.9529 21.817 53.1587 22.0421 53.3576 22.2599C53.647 22.5764 53.9459 22.9038 53.8787 23.4474C53.8033 24.0573 53.454 24.3235 53.1987 24.5178C53.0532 24.6288 52.9382 24.7164 52.9067 24.8314C52.7088 25.5466 52.4116 25.962 51.9984 26.1013C51.8955 26.1358 51.7883 26.1521 51.6775 26.1521ZM45.5552 22.4199C46.9188 22.6377 48.2056 23.6188 49.3502 24.4916C50.3989 25.2912 51.3063 25.9812 51.8912 25.7832C52.191 25.6823 52.4171 25.3417 52.5833 24.742C52.6449 24.518 52.8232 24.3823 52.9955 24.2509C53.2374 24.0666 53.4877 23.8761 53.5457 23.4061C53.5939 23.016 53.3802 22.7822 53.1099 22.4863C52.8962 22.2527 52.6544 21.9879 52.5377 21.6099C52.4345 21.2755 52.428 21.0171 52.4227 20.8093C52.4139 20.4587 52.4099 20.3137 51.9659 20.0858C49.8955 19.0229 47.3487 20.9579 45.5552 22.4199Z" fill="#1B3666"/>
<path d="M49.1467 24.7584L49.3779 24.4553L49.3779 24.4552L49.1467 24.7584ZM45.2259 22.719L45.2534 22.3388L45.253 22.3387L45.2259 22.719ZM45.1679 22.7042L45.3281 22.3583L45.234 22.3148L45.1309 22.3248L45.1679 22.7042ZM45.0165 22.6441L45.3117 22.4029L45.3114 22.4025L45.0165 22.6441ZM45.0398 22.408L44.7981 22.1132L44.7975 22.1137L45.0398 22.408ZM52.1193 19.7872L52.2933 19.4481L52.2933 19.4481L52.1193 19.7872ZM52.7583 20.8008L53.1393 20.7913L53.1393 20.7911L52.7583 20.8008ZM52.8582 21.5109L52.494 21.6232L52.4941 21.6236L52.8582 21.5109ZM53.3576 22.2599L53.0762 22.5169L53.0763 22.517L53.3576 22.2599ZM53.8787 23.4474L54.257 23.4942L54.257 23.4942L53.8787 23.4474ZM53.1987 24.5178L52.9678 24.2145L52.9676 24.2147L53.1987 24.5178ZM52.9067 24.8314L53.2741 24.9331L53.2744 24.932L52.9067 24.8314ZM51.9984 26.1013L52.1197 26.4626L52.1201 26.4625L51.9984 26.1013ZM45.5552 22.4199L45.3144 22.1245L44.6548 22.6622L45.4951 22.7963L45.5552 22.4199ZM49.3502 24.4916L49.1191 24.7947L49.1191 24.7947L49.3502 24.4916ZM51.8912 25.7832L51.7696 25.422L51.769 25.4222L51.8912 25.7832ZM52.5833 24.742L52.9506 24.8438L52.9508 24.8431L52.5833 24.742ZM52.9955 24.2509L52.7645 23.9478L52.7644 23.9478L52.9955 24.2509ZM53.5457 23.4061L53.1674 23.3594L53.1674 23.3595L53.5457 23.4061ZM53.1099 22.4863L53.3913 22.2292L53.3912 22.2291L53.1099 22.4863ZM52.5377 21.6099L52.902 21.4975L52.9019 21.4975L52.5377 21.6099ZM52.4227 20.8093L52.8038 20.7997V20.7997L52.4227 20.8093ZM51.9659 20.0858L51.7918 20.4249L51.7918 20.4249L51.9659 20.0858ZM51.6775 25.7709C51.4341 25.7709 51.1189 25.6539 50.7098 25.4067C50.3076 25.1637 49.8681 24.8292 49.3779 24.4553L48.9156 25.0614C49.3963 25.4281 49.8708 25.7905 50.3156 26.0592C50.7533 26.3237 51.218 26.5332 51.6775 26.5332V25.7709ZM49.3779 24.4552C48.7852 24.0034 48.1304 23.5034 47.4473 23.1057C46.7648 22.7083 46.0243 22.3946 45.2534 22.3388L45.1983 23.0991C45.8045 23.1431 46.4282 23.3945 47.0637 23.7645C47.6987 24.1343 48.3158 24.6042 48.9156 25.0615L49.3779 24.4552ZM45.253 22.3387C45.2771 22.3405 45.3027 22.3466 45.3281 22.3583L45.0077 23.0501C45.0685 23.0782 45.1334 23.0945 45.1988 23.0992L45.253 22.3387ZM45.1309 22.3248C45.1829 22.3198 45.2574 22.3365 45.3117 22.4029L44.7213 22.8852C44.8516 23.0448 45.0421 23.0995 45.2049 23.0836L45.1309 22.3248ZM45.3114 22.4025C45.3861 22.4938 45.3725 22.6278 45.282 22.7023L44.7975 22.1137C44.5641 22.3058 44.5295 22.6511 44.7216 22.8856L45.3114 22.4025ZM45.2814 22.7028C46.2218 21.9319 47.3616 20.9993 48.5543 20.4048C49.7483 19.8096 50.9099 19.5951 51.9452 20.1264L52.2933 19.4481C50.9397 18.7535 49.4957 19.0837 48.2142 19.7225C46.9314 20.362 45.7259 21.3527 44.7981 22.1132L45.2814 22.7028ZM51.9452 20.1264C52.2107 20.2626 52.2921 20.3719 52.3251 20.44C52.3644 20.5211 52.3722 20.6113 52.3772 20.8105L53.1393 20.7911C53.1349 20.6174 53.1336 20.3601 53.0111 20.1074C52.8822 19.8416 52.6488 19.6306 52.2933 19.4481L51.9452 20.1264ZM52.3772 20.8103C52.3823 21.0121 52.3881 21.2798 52.494 21.6232L53.2225 21.3986C53.1494 21.1617 53.1441 20.9831 53.1393 20.7913L52.3772 20.8103ZM52.4941 21.6236C52.6179 22.0236 52.8856 22.3083 53.0762 22.5169L53.6391 22.0028C53.4318 21.7759 53.288 21.6104 53.2224 21.3982L52.4941 21.6236ZM53.0763 22.517C53.3751 22.8439 53.5437 23.05 53.5004 23.4007L54.257 23.4942C54.348 22.7576 53.9189 22.3089 53.639 22.0027L53.0763 22.517ZM53.5004 23.4007C53.4452 23.8469 53.2098 24.0304 52.9678 24.2145L53.4296 24.8211C53.6982 24.6167 54.1614 24.2676 54.257 23.4942L53.5004 23.4007ZM52.9676 24.2147C52.9006 24.2658 52.814 24.331 52.7423 24.4017C52.6686 24.4744 52.5799 24.5816 52.5391 24.7309L53.2744 24.932C53.265 24.9663 53.2496 24.9721 53.2776 24.9445C53.3076 24.9149 53.3513 24.8808 53.4298 24.821L52.9676 24.2147ZM52.5394 24.7298C52.3515 25.4085 52.1052 25.663 51.8766 25.7401L52.1201 26.4625C52.718 26.261 53.0661 25.6848 53.2741 24.9331L52.5394 24.7298ZM51.877 25.7399C51.8164 25.7603 51.7506 25.7709 51.6775 25.7709V26.5332C51.826 26.5332 51.9745 26.5114 52.1197 26.4626L51.877 25.7399ZM45.4951 22.7963C46.7453 22.996 47.9527 23.9053 49.1191 24.7947L49.5814 24.1885C48.4585 23.3323 47.0922 22.2794 45.6153 22.0435L45.4951 22.7963ZM49.1191 24.7947C49.6369 25.1896 50.1475 25.5793 50.6047 25.842C50.8346 25.9741 51.0678 26.0842 51.296 26.1455C51.5248 26.2069 51.7728 26.2257 52.0134 26.1443L51.769 25.4222C51.7172 25.4397 51.6324 25.4465 51.4937 25.4092C51.3545 25.3718 51.1856 25.2966 50.9845 25.181C50.5796 24.9483 50.1122 24.5933 49.5814 24.1885L49.1191 24.7947ZM52.0128 26.1445C52.5106 25.9769 52.7812 25.4552 52.9506 24.8438L52.2159 24.6402C52.0531 25.2281 51.8715 25.3877 51.7696 25.422L52.0128 26.1445ZM52.9508 24.8431C52.9729 24.7628 53.0354 24.6998 53.2266 24.5541L52.7644 23.9478C52.6109 24.0649 52.3169 24.2732 52.2158 24.6409L52.9508 24.8431ZM53.2266 24.5541C53.3423 24.4659 53.5057 24.3439 53.6411 24.1688C53.7841 23.9839 53.8869 23.754 53.924 23.4528L53.1674 23.3595C53.1466 23.5282 53.0952 23.6286 53.038 23.7025C52.9732 23.7862 52.8906 23.8517 52.7645 23.9478L53.2266 24.5541ZM53.924 23.4529C53.9966 22.8647 53.6433 22.505 53.3913 22.2292L52.8285 22.7434C53.1172 23.0594 53.1911 23.1674 53.1674 23.3594L53.924 23.4529ZM53.3912 22.2291C53.1728 21.9903 52.9901 21.7832 52.902 21.4975L52.1735 21.7223C52.3186 22.1926 52.6196 22.515 52.8286 22.7435L53.3912 22.2291ZM52.9019 21.4975C52.815 21.2158 52.8089 21.0015 52.8038 20.7997L52.0417 20.8189C52.047 21.0327 52.054 21.3351 52.1735 21.7223L52.9019 21.4975ZM52.8038 20.7997C52.8 20.6506 52.8023 20.4266 52.6942 20.2229C52.5797 20.0071 52.3786 19.8692 52.14 19.7467L51.7918 20.4249C51.9972 20.5303 52.0201 20.5789 52.0208 20.5802C52.0215 20.5816 52.0272 20.5918 52.032 20.629C52.0375 20.6721 52.0393 20.7257 52.0417 20.819L52.8038 20.7997ZM52.14 19.7467C50.9488 19.1352 49.6556 19.4077 48.4927 19.9619C47.3269 20.5176 46.2098 21.3945 45.3144 22.1245L45.7961 22.7154C46.6941 21.9834 47.7472 21.1618 48.8207 20.6501C49.8972 20.1371 50.9126 19.9735 51.7918 20.4249L52.14 19.7467Z" fill="#1B3666" mask="url(#path-6-outside-2_1910_1663)"/>
<path d="M42.3118 17.4053C41.7895 16.215 40.7147 15.2023 39.7824 14.3239L39.7613 14.304C39.2819 13.8521 38.8485 13.4431 38.5457 13.0723C38.3949 12.8875 38.2828 12.7197 38.2143 12.5681C38.146 12.4168 38.1259 12.2926 38.1429 12.1884L42.3118 17.4053ZM42.3118 17.4053C42.849 16.4743 43.4135 15.414 43.7282 14.3733C44.0831 13.2002 44.1075 12.0972 43.4721 11.2347L43.472 11.2346C43.3307 11.0427 43.2502 10.9888 43.1915 10.9695C43.1252 10.9477 43.05 10.9545 42.8619 10.9812L42.3118 17.4053ZM38.8519 10.5528L38.852 10.5526L38.8534 10.5502C39.0118 10.2589 39.2553 9.81107 39.9259 9.61285L39.926 9.61283C40.5409 9.4313 40.9786 9.71476 41.3298 9.94227C41.3349 9.94558 41.34 9.94888 41.3451 9.95216L38.8519 10.5528ZM38.8519 10.5528C38.8061 10.6373 38.7724 10.6985 38.7385 10.7456C38.7055 10.7914 38.6835 10.8073 38.6699 10.8136M38.8519 10.5528L38.6699 10.8136M42.089 10.2909L42.0892 10.2909C42.365 10.3276 42.5664 10.2992 42.7611 10.2715L42.7613 10.2715C42.7663 10.2708 42.7713 10.2701 42.7764 10.2693C42.9528 10.2443 43.1618 10.2148 43.3799 10.2783C43.6118 10.3459 43.8272 10.5083 44.049 10.8097C44.8963 11.9598 44.8056 13.3674 44.373 14.7155C43.9412 16.0609 43.1539 17.3943 42.5367 18.4399L42.5313 18.449L42.531 18.4495C42.4641 18.562 42.345 18.6251 42.2227 18.6251C42.1607 18.6251 42.0974 18.609 42.0403 18.5752M42.089 10.2909L42.1375 18.4112M42.089 10.2909C41.8185 10.2552 41.5976 10.1155 41.3451 9.95219L42.089 10.2909ZM42.0403 18.5752L42.1375 18.4112M42.0403 18.5752C42.0405 18.5753 42.0406 18.5754 42.0408 18.5754L42.1375 18.4112M42.0403 18.5752C41.9464 18.5197 41.8876 18.4284 41.8699 18.3299M42.1375 18.4112C42.0857 18.3807 42.0565 18.327 42.0549 18.2713M41.8699 18.3299C41.8775 18.3462 41.8862 18.3617 41.8958 18.3763L42.0549 18.2713M41.8699 18.3299C41.8595 18.3077 41.8512 18.2839 41.8455 18.2588M41.8699 18.3299C41.8668 18.3124 41.8649 18.2947 41.8644 18.2769L42.0549 18.2713M42.0549 18.2713L41.8455 18.2588M41.8455 18.2588C41.7001 17.6287 41.3348 17.0296 40.8607 16.4539C40.3867 15.8784 39.8155 15.3397 39.2699 14.8255C39.2698 14.8255 39.2698 14.8255 39.2698 14.8255L39.2624 14.8185C38.7573 14.3426 38.2719 13.8852 37.9302 13.4464C37.5899 13.0094 37.3581 12.5488 37.4357 12.0731L41.8455 18.2588ZM40.1291 10.3002L40.129 10.3002C39.9297 10.3591 39.8058 10.4456 39.7154 10.5413C39.6209 10.6414 39.5569 10.7571 39.4818 10.8952L39.4818 10.8952C39.4788 10.9008 39.4757 10.9063 39.4726 10.912C39.3747 11.0922 39.2401 11.3399 38.9699 11.4644L40.1291 10.3002ZM40.1291 10.3002C40.1962 10.2803 40.256 10.2721 40.3109 10.2721C40.5102 10.2721 40.6816 10.3764 40.9558 10.5538C40.9558 10.5538 40.9558 10.5538 40.9558 10.5538L40.9646 10.5595C41.2259 10.7288 41.5579 10.9438 41.9952 11.0014L41.9953 11.0014M40.1291 10.3002L41.9953 11.0014M41.9953 11.0014C42.3704 11.0507 42.6507 11.0111 42.8618 10.9812L41.9953 11.0014ZM38.6699 10.8136C37.9667 11.1379 37.5223 11.5413 37.4357 12.0731L38.6699 10.8136Z" fill="#1B3666" stroke="#1B3666" stroke-width="0.381176"/>
<path d="M53.135 33.6475C53.1173 33.455 52.9515 33.3038 52.7446 33.3237C50.3756 33.5452 46.298 34.4274 42.1379 35.893C37.9807 37.3575 33.7139 39.4138 30.9858 41.9967L30.9857 41.9969C30.8423 42.1329 30.836 42.3594 30.9717 42.5032L30.972 42.5035C31.0425 42.5779 31.1374 42.6154 31.2322 42.6154C31.3202 42.6154 31.4092 42.5829 31.4784 42.5175L31.4786 42.5173C34.1186 40.0178 38.2844 38.0046 42.3881 36.5609C46.4887 35.1183 50.5001 34.2536 52.8116 34.0375L52.8117 34.0375C53.0086 34.0189 53.1532 33.8444 53.135 33.6475ZM53.135 33.6475L52.9452 33.665M53.135 33.6475C53.135 33.6475 53.135 33.6475 53.135 33.6475L52.9452 33.665M52.9452 33.665C52.9538 33.7573 52.8859 33.8391 52.7938 33.8477L31.1168 42.1351C36.5143 37.0249 48.0626 33.9529 52.7624 33.5135C52.8597 33.5038 52.9367 33.5726 52.9452 33.665Z" fill="#1B3666" stroke="#1B3666" stroke-width="0.381176"/>
<path d="M39.1281 37.8092L39.1281 37.8092C38.9298 37.8088 38.7703 37.6479 38.7703 37.4506C38.7703 37.2524 38.9314 37.0924 39.1287 37.0924H39.1287H39.1287H39.1287H39.1287H39.1287H39.1287H39.1287H39.1287H39.1287H39.1287H39.1287H39.1287H39.1287H39.1287H39.1287H39.1287H39.1287H39.1287H39.1287H39.1287H39.1287H39.1287H39.1287H39.1287H39.1287H39.1287H39.1287H39.1287H39.1287H39.1287H39.1287H39.1287H39.1287H39.1287H39.1287H39.1287H39.1287H39.1287H39.1287H39.1287H39.1287H39.1287H39.1287H39.1287H39.1287H39.1287H39.1287H39.1287H39.1287H39.1287H39.1287H39.1287H39.1287H39.1287H39.1287H39.1287H39.1287H39.1287H39.1287H39.1287H39.1287H39.1287H39.1287H39.1287H39.1287H39.1287H39.1287H39.1287H39.1287H39.1287H39.1287H39.1287H39.1287H39.1287H39.1287H39.1287H39.1287H39.1287H39.1287H39.1287H39.1287H39.1287H39.1287H39.1287H39.1287H39.1287H39.1287H39.1287H39.1287H39.1287H39.1287H39.1287H39.1287H39.1287H39.1287H39.1287H39.1287H39.1287H39.1287H39.1287H39.1287H39.1287H39.1287H39.1287H39.1287H39.1287H39.1287H39.1287H39.1287H39.1287H39.1287H39.1287H39.1287H39.1287H39.1287H39.1287H39.1287H39.1287H39.1287H39.1287H39.1287H39.1287H39.1287H39.1287H39.1287H39.1287H39.1287H39.1287H39.1287H39.1287H39.1287H39.1287H39.1287H39.1287H39.1287H39.1287H39.1287H39.1287H39.1288H39.1288H39.1288H39.1288H39.1288H39.1288H39.1288H39.1288H39.1288H39.1288H39.1288H39.1288H39.1288H39.1288H39.1288H39.1288H39.1288H39.1288H39.1288H39.1288H39.1288H39.1288H39.1288H39.1288H39.1288H39.1288H39.1288H39.1288H39.1288H39.1288H39.1288H39.1288H39.1288H39.1288H39.1288H39.1288H39.1288H39.1288H39.1288H39.1288H39.1288H39.1288H39.1288H39.1288H39.1288H39.1288H39.1288H39.1288H39.1288H39.1288H39.1288H39.1288H39.1288H39.1288H39.1288H39.1288H39.1288H39.1288H39.1288H39.1288H39.1288H39.1288H39.1288H39.1288H39.1288H39.1288H39.1288H39.1288H39.1288H39.1288H39.1288H39.1288H39.1288H39.1288H39.1288H39.1288H39.1288H39.1288H39.1288H39.1288H39.1288H39.1288H39.1288H39.1288H39.1288H39.1288H39.1288H39.1288H39.1288H39.1288H39.1288H39.1288H39.1288H39.1288H39.1288H39.1288H39.1288H39.1288H39.1288H39.1288H39.1288H39.1288H39.1288H39.1288H39.1288H39.1288H39.1288H39.1288H39.1288H39.1288H39.1288H39.1288H39.1288H39.1288H39.1288H39.1288H39.1288H39.1288H39.1288H39.1288H39.1288H39.1288H39.1288H39.1288H39.1288H39.1288H39.1288H39.1288H39.1288H39.1288H39.1288H39.1288H39.1288H39.1288H39.1288H39.1288H39.1288H39.1288H39.1288H39.1288H39.1288H39.1288H39.1288H39.1288H39.1288H39.1289H39.1289H39.1289H39.1289H39.1289H39.1289H39.1289H39.1289H39.1289H39.1289H39.1289H39.1289H39.1289H39.1289H39.1289H39.1289H39.1289H39.1289H39.1289H39.1289H39.1289H39.1289H39.1289H39.1289H39.1289H39.1289H39.1289H39.1289H39.1289H39.1289H39.1289H39.1289H39.1289H39.1289H39.1289H39.1289H39.1289H39.1289H39.1289H39.1289H39.1289H39.1289H39.1289H39.1289H39.1289H39.1289H39.1289H39.1289H39.1289H39.1289H39.1289H39.1289H39.1289H39.1289H39.1289H39.1289H39.1289H39.1289H39.1289H39.1289H39.1289H39.1289H39.1289H39.1289H39.1289H39.1289H39.1289H39.1289H39.1289H39.1289H39.1289H39.1289H39.1289H39.1289H39.1289H39.1289H39.1289H39.1289H39.1289H39.129H39.129H39.129H39.129H39.129H39.129H39.129H39.129H39.129H39.129H39.129H39.129H39.129H39.129H39.129H39.129H39.129H39.129H39.129H39.129H39.129H39.129H39.129H39.129H39.129H39.129H39.129H39.129H39.129H39.129H39.129H39.129H39.129H39.129H39.129H39.129H39.129H39.129H39.129H39.129H39.129H39.129H39.129H39.129H39.129H39.129H39.129H39.129H39.129H39.129H39.129H39.129H39.129H39.129H39.129H39.1293V37.0924C42.1126 37.0967 44.8583 38.0576 47.0652 39.8743L39.1281 37.8092ZM39.1281 37.8092C41.9493 37.8132 44.5347 38.7197 46.61 40.4278L39.1281 37.8092Z" fill="#1B3666" stroke="#1B3666" stroke-width="0.381176"/>
<path d="M38.6904 37.6743L38.6901 37.6738C38.5964 37.4997 38.6614 37.2823 38.8357 37.1884M38.6904 37.6743L38.9261 37.3562M38.6904 37.6743C38.7554 37.794 38.8786 37.8622 39.0058 37.8622C39.063 37.8622 39.1215 37.8487 39.1759 37.8192C42.3266 36.1196 43.7372 32.539 44.2961 30.5843M38.6904 37.6743L43.7904 30.4396M38.8357 37.1884C38.8358 37.1884 38.8358 37.1884 38.8358 37.1884L38.9261 37.3562M38.8357 37.1884C38.8357 37.1884 38.8357 37.1885 38.8356 37.1885L38.9261 37.3562M38.8357 37.1884C41.7328 35.6254 43.0673 32.275 43.6072 30.3873M38.9261 37.3562C41.896 35.754 43.2484 32.335 43.7904 30.4396M43.6072 30.3873C43.6071 30.3874 43.6071 30.3875 43.6071 30.3876L43.7904 30.4396M43.6072 30.3873C43.6072 30.3873 43.6072 30.3872 43.6072 30.3872L43.7904 30.4396M43.6072 30.3873C43.6615 30.1961 43.8593 30.0882 44.0486 30.1405L44.0504 30.141L44.0504 30.141C44.2407 30.1956 44.3507 30.394 44.2961 30.5843M44.2961 30.5843L44.1129 30.5317L44.2961 30.584C44.2961 30.5841 44.2961 30.5842 44.2961 30.5843Z" fill="#1B3666" stroke="#1B3666" stroke-width="0.381176"/>
<path d="M46.9537 35.1675L46.9537 35.1675C46.9318 35.169 46.9084 35.1686 46.8843 35.1658C46.7855 35.1786 46.6828 35.1501 46.6027 35.0804L46.6024 35.0802C46.4535 34.9501 46.4379 34.7237 46.5686 34.5745C46.5686 34.5744 46.5686 34.5744 46.5686 34.5744C46.5687 34.5744 46.5688 34.5743 46.5688 34.5742L46.5743 34.5679C47.3048 33.7326 48.239 32.6643 49.3085 31.905C50.382 31.1428 51.6249 30.6689 52.956 31.0871L46.9537 35.1675ZM46.9537 35.1675L46.9563 35.1673M46.9537 35.1675L46.9563 35.1673M46.9563 35.1673C47.5782 35.1165 48.2487 35.2683 48.9357 35.5227C49.6192 35.7757 50.3028 36.1238 50.9556 36.4561L50.9639 36.4604L50.9684 36.4627C51.4473 36.7065 51.9102 36.9422 52.3352 37.1165C52.759 37.2903 53.1653 37.412 53.5281 37.412C53.7444 37.412 53.9511 37.3687 54.1366 37.2634L54.1366 37.2634C54.5725 37.0162 54.7747 36.5071 54.8219 35.8124L54.822 35.8123C54.822 35.8122 54.822 35.8 54.8472 35.7646C54.8739 35.7269 54.9149 35.6818 54.9794 35.6135L54.9795 35.6134L54.9815 35.6113C55.1936 35.3864 55.5259 35.034 55.4696 34.3684L55.4696 34.3684C55.4187 33.7696 55.0089 33.4651 54.6832 33.2231C54.6779 33.2191 54.6725 33.2151 54.6672 33.2111L54.6671 33.2111C54.4308 33.0355 54.2267 32.8803 54.1003 32.6536L54.1003 32.6536M46.9563 35.1673L54.1003 32.6536M54.1003 32.6536C53.9724 32.4242 53.928 32.242 53.8855 32.0651L54.1003 32.6536ZM53.6628 31.5212C53.7968 31.6956 53.8433 31.8894 53.8824 32.0525L53.6628 31.5212ZM53.6628 31.5212C53.522 31.3378 53.3026 31.1959 52.9561 31.0871L53.6628 31.5212ZM54.1068 35.7636L54.1067 35.7638C54.0695 36.3113 53.9358 36.5532 53.783 36.6399L53.8771 36.8057L53.7833 36.6398C53.7027 36.6854 53.5856 36.7066 53.4195 36.6902C53.2541 36.6739 53.0569 36.6219 52.8313 36.5402C52.379 36.3763 51.8495 36.1068 51.2893 35.8217C51.2893 35.8217 51.2893 35.8217 51.2893 35.8217L51.2659 35.8098C50.1525 35.2429 48.8718 34.5907 47.6223 34.4633C48.269 33.7419 49.0173 32.9693 49.8323 32.415C50.7588 31.7847 51.7406 31.4569 52.7416 31.771C52.9667 31.8416 53.0463 31.8978 53.0856 31.9452C53.1278 31.996 53.1473 32.061 53.1888 32.2329L53.1892 32.2346C53.2358 32.4284 53.2978 32.6863 53.4744 33.0026C53.6783 33.3689 53.9866 33.5982 54.2292 33.7786L54.2395 33.7862C54.2395 33.7862 54.2395 33.7862 54.2395 33.7862C54.5665 34.0294 54.7331 34.1655 54.7555 34.429C54.7708 34.6101 54.7373 34.7335 54.6865 34.8311C54.6325 34.9349 54.555 35.0187 54.458 35.1217C54.4539 35.126 54.4498 35.1304 54.4456 35.1348C54.3139 35.2741 54.1269 35.4719 54.1068 35.7636Z" fill="#1B3666" stroke="#1B3666" stroke-width="0.381176"/>
<path d="M44.2062 38.4544C44.9191 39.3219 45.3414 40.5422 45.7084 41.6028L45.7164 41.6258C45.7164 41.6259 45.7164 41.6259 45.7164 41.6259C45.9046 42.1693 46.0823 42.682 46.2739 43.0746C46.3695 43.2706 46.4644 43.4275 46.5595 43.5401C46.6554 43.6536 46.7392 43.7074 46.8101 43.7246L46.8101 43.7246C46.8709 43.7394 46.9591 43.7328 47.0842 43.6732C47.2095 43.6135 47.3584 43.5066 47.5293 43.3438L47.5293 43.3438C47.7307 43.1522 47.9845 43.1327 48.1605 43.1192C48.1663 43.1187 48.172 43.1183 48.1777 43.1178C48.3045 43.1079 48.4038 43.099 48.4999 43.0635C48.5898 43.0302 48.6853 42.9697 48.7853 42.841C48.9283 42.657 48.9054 42.4706 48.8421 42.107C48.8421 42.107 48.8421 42.1069 48.8421 42.1069L48.8401 42.0956C48.7925 41.8226 48.7316 41.4736 48.8266 41.0945L48.8266 41.0943C48.9087 40.7684 49.0294 40.5537 49.1197 40.393L49.1203 40.392L49.1203 40.3919C49.1994 40.2514 49.2246 40.1991 49.2283 40.1438C49.2315 40.0939 49.2168 40.0126 49.1155 39.8311L44.2062 38.4544ZM44.2062 38.4544C44.9987 38.3781 45.9292 38.3311 46.789 38.4631C47.7886 38.6167 48.654 39.0056 49.1154 39.831L44.2062 38.4544ZM46.6408 44.4211C46.7171 44.4396 46.7948 44.4488 46.8733 44.4488C47.2546 44.4488 47.635 44.2328 48.0227 43.8638C48.0252 43.8623 48.0347 43.8576 48.0585 43.8525C48.0972 43.8441 48.15 43.839 48.2336 43.8324L48.2337 43.8324L48.24 43.8319C48.375 43.8214 48.5597 43.8069 48.7546 43.734C48.957 43.6583 49.163 43.5228 49.3511 43.2808C49.6966 42.8361 49.6152 42.3699 49.5511 42.0024C49.55 41.9963 49.549 41.9902 49.5479 41.9842C49.5022 41.7206 49.4653 41.4945 49.522 41.2689L49.522 41.2688C49.5801 41.0378 49.6633 40.8887 49.7451 40.7434L49.7452 40.7433C49.7473 40.7396 49.7494 40.7358 49.7515 40.7321C49.8279 40.5964 49.9197 40.4332 49.9405 40.2282C49.9625 40.0115 49.9047 39.7745 49.7412 39.4817L49.7412 39.4817C49.1001 38.334 47.9138 37.8779 46.7064 37.7271C45.5024 37.5768 44.2338 37.7242 43.3628 37.8254L43.3542 37.8264C43.3542 37.8264 43.3542 37.8264 43.3541 37.8264C43.3541 37.8264 43.3541 37.8264 43.3541 37.8264C43.1572 37.8493 43.0169 38.0274 43.0393 38.2233L43.0393 38.2233L43.0393 38.2239C43.0554 38.3606 43.1462 38.47 43.2657 38.5165C43.6833 38.8632 44.0155 39.3708 44.2989 39.9584C44.588 40.5579 44.8187 41.2237 45.0389 41.8603L45.039 41.8604L45.0435 41.8734C45.2515 42.474 45.4518 43.0523 45.6871 43.5009C45.9207 43.9462 46.2158 44.3178 46.6408 44.4211ZM46.6408 44.4211L46.6858 44.2359L46.6408 44.4211C46.6408 44.4211 46.6408 44.4211 46.6408 44.4211ZM48.0225 43.8639C48.0222 43.8642 48.022 43.8643 48.022 43.8643L48.0225 43.8639Z" fill="#1B3666" stroke="#1B3666" stroke-width="0.381176"/>
<path d="M44.2623 27.0191C43.8858 26.9119 43.663 27.0489 43.4486 27.1811L43.4448 27.1835C43.2848 27.2824 43.12 27.3842 42.9129 27.3576L42.889 27.5467C42.889 27.5466 42.8889 27.5466 42.8888 27.5466L44.2623 27.0191ZM44.2623 27.0191C44.577 27.1081 44.6954 27.358 44.8453 27.6746L44.8456 27.6753L44.8466 27.6773L44.2623 27.0191ZM41.5139 27.2074L41.5139 27.2073C41.8244 26.8482 42.3331 26.7547 42.9785 26.8355L42.9788 26.8355C42.9819 26.8351 42.9927 26.8329 43.0148 26.8231C43.0523 26.8064 43.0998 26.7783 43.1726 26.7333C43.4175 26.5819 43.805 26.3424 44.406 26.5129C44.406 26.5129 44.406 26.5129 44.4061 26.5129L44.3541 26.6963L41.5139 27.2074ZM41.5139 27.2074C41.2274 27.539 41.1941 28.0088 41.2536 28.5046C41.3135 29.0035 41.4753 29.5856 41.6431 30.1896L41.6459 30.1995C41.6459 30.1995 41.6459 30.1995 41.6459 30.1996C41.8241 30.841 42.0102 31.5121 42.1106 32.1655C42.2111 32.8195 42.2226 33.4386 42.0632 33.9775C42.0568 33.9994 42.0523 34.022 42.0501 34.0448C42.0193 34.1372 42.0256 34.2428 42.0784 34.3356L42.244 34.2414M41.5139 27.2074L42.244 34.2414M46.1919 28.3303L46.1921 28.3304C46.1961 28.3322 46.2002 28.334 46.2042 28.3359C46.3454 28.4001 46.5164 28.4779 46.653 28.6327C46.7974 28.7965 46.8867 29.0245 46.9208 29.36M46.1919 28.3303L46.9208 29.36M46.1919 28.3303C46.0412 28.2619 45.8878 28.1915 45.7083 28.0404M46.1919 28.3303L45.7083 28.0404M46.9208 29.36C47.0504 30.6337 46.3849 31.6659 45.4941 32.4918C44.607 33.3144 43.4661 33.9608 42.5748 34.4658L42.5667 34.4703M46.9208 29.36L42.5667 34.4703M42.5667 34.4703C42.5666 34.4704 42.5665 34.4704 42.5664 34.4705M42.5667 34.4703L42.5664 34.4705M42.5664 34.4705C42.5108 34.5021 42.4497 34.5171 42.3899 34.5171C42.2655 34.5171 42.1441 34.4517 42.0782 34.3354L42.244 34.2414M42.5664 34.4705L42.244 34.2414M45.7083 28.0404L45.5856 28.1861L45.7083 28.0404ZM43.5487 27.3433C43.6587 27.2754 43.7467 27.2225 43.8475 27.1934C43.9418 27.1662 44.0552 27.1583 44.2101 27.2024L44.2104 27.2024C44.4294 27.2644 44.5162 27.4249 44.6734 27.7568L44.6734 27.7569C44.6753 27.7609 44.6772 27.7649 44.6791 27.769C44.7972 28.018 44.9486 28.3374 45.2464 28.5885L45.2465 28.5885C45.503 28.8046 45.7272 28.9064 45.8948 28.9825L45.8952 28.9827L43.5487 27.3433ZM45.1008 31.8752C44.4629 32.4927 43.645 33.017 42.8839 33.4625L45.8954 28.9828C46.0407 29.049 46.0893 29.0753 46.1224 29.1159C46.1524 29.1526 46.1869 29.2256 46.208 29.4327C46.3022 30.3597 45.8341 31.1654 45.1008 31.8752Z" fill="#1B3666" stroke="#1B3666" stroke-width="0.381176"/>
<path d="M25.1571 21.8151L25.1571 21.8151C25.2854 21.6656 25.5112 21.6465 25.6621 21.7755M25.1571 21.8151L33.6933 36.3633L33.8794 36.3225C33.4166 34.2112 32.2184 31.3066 30.714 28.571C29.2107 25.8372 27.3874 23.2461 25.6621 21.7755M25.1571 21.8151L25.1565 21.8158C25.0284 21.9663 25.0465 22.1926 25.197 22.3208L25.1571 21.8151ZM25.6621 21.7755C25.6621 21.7756 25.6622 21.7757 25.6623 21.7758L25.5383 21.9204L25.6619 21.7754C25.6619 21.7754 25.662 21.7755 25.6621 21.7755Z" fill="#1B3666" stroke="#1B3666" stroke-width="0.381176"/>
<path d="M32.1846 33.2529L32.1842 33.2524C30.206 31.321 27.7739 30.1213 25.3401 29.8652L32.1846 33.2529ZM32.1846 33.2529C32.2541 33.3203 32.3445 33.3543 32.4346 33.3543C32.5272 33.3543 32.6207 33.3184 32.6909 33.2463C32.8295 33.1046 32.8264 32.8777 32.6852 32.7396L32.6851 32.7395M32.1846 33.2529L32.6851 32.7395M32.6851 32.7395C30.5997 30.7037 28.0199 29.4268 25.4166 29.1526C25.2113 29.1288 25.0414 29.2792 25.0214 29.4714C25.0006 29.6682 25.1434 29.8445 25.3401 29.8652L32.6851 32.7395Z" fill="#1B3666" stroke="#1B3666" stroke-width="0.381176"/>
<path d="M32.0907 33.0957L32.0908 33.0958C32.1364 33.253 32.28 33.3543 32.435 33.3543C32.4681 33.3543 32.5012 33.3497 32.5336 33.3406L32.5336 33.3406L32.5352 33.3401C32.7252 33.2848 32.8339 33.0861 32.7794 32.8966L32.7793 32.8962C32.1714 30.7996 32.7226 28.1124 34.3346 25.5227L34.3347 25.5225C34.4388 25.3548 34.388 25.1339 34.2198 25.0291L34.2193 25.0289C34.0522 24.9254 33.8312 24.9751 33.726 25.1438L33.7259 25.144C32.0281 27.8718 31.4168 30.7704 32.0907 33.0957Z" fill="#1B3666" stroke="#1B3666" stroke-width="0.381176"/>
<path d="M23.5301 21.7212L23.53 21.7213C23.4081 21.8398 23.3591 21.9397 23.3373 22.0285C23.3137 22.1243 23.3175 22.2206 23.3244 22.3523L23.3244 22.3523C23.3247 22.3574 23.325 22.3627 23.3252 22.368C23.3347 22.5453 23.3484 22.8018 23.1755 23.0287L23.1755 23.0287C23.0294 23.2203 22.9377 23.3819 22.8913 23.5135C22.845 23.6451 22.8491 23.7313 22.8704 23.7874L22.8705 23.7875C22.8954 23.8529 22.9589 23.928 23.0872 24.008C23.2141 24.0871 23.3867 24.16 23.5996 24.2283C24.0259 24.3652 24.5742 24.4722 25.1546 24.5851L25.1547 24.5851L25.1816 24.5903C26.3299 24.8136 27.6527 25.0709 28.6377 25.679C28.6147 24.8144 28.5489 23.8635 28.3054 23.0286C28.0273 22.0754 27.5281 21.3062 26.6266 20.972L26.6265 20.9719C26.4221 20.896 26.3304 20.8909 26.2723 20.9024C26.2097 20.9148 26.1546 20.9504 26.0188 21.0487L26.0185 21.0489L26.0153 21.0512C25.8622 21.1617 25.6586 21.3085 25.3374 21.4324L23.5301 21.7212ZM23.5301 21.7212C23.6708 21.5844 23.8324 21.5519 24.0887 21.5519C24.1535 21.5519 24.2217 21.554 24.2965 21.5563L24.3018 21.5564L24.302 21.5564M23.5301 21.7212L24.302 21.5564M24.302 21.5564C24.3071 21.5566 24.3122 21.5567 24.3173 21.5569M24.302 21.5564L24.3173 21.5569M24.3173 21.5569C24.6034 21.5653 24.966 21.5759 25.3373 21.4325L24.3173 21.5569ZM28.7021 26.6188L28.7022 26.6189C28.7192 26.6344 28.7373 26.6482 28.7565 26.66C28.8212 26.724 28.9105 26.7637 29.0087 26.7637H29.0087H29.0087H29.0087H29.0087H29.0087H29.0087H29.0087H29.0087H29.0087H29.0087H29.0087H29.0087H29.0087H29.0087H29.0087H29.0087H29.0087H29.0087H29.0087H29.0087H29.0087H29.0087H29.0088H29.0088H29.0088H29.0088H29.0088H29.0088H29.0088H29.0088H29.0088H29.0088H29.0088H29.0088H29.0088H29.0088H29.0088H29.0088H29.0088H29.0088H29.0088H29.0088H29.0088H29.0088H29.0088H29.0088H29.0088H29.0088H29.0089H29.0089H29.0089H29.0089H29.0089H29.0089H29.0089H29.0089H29.0089H29.0089H29.0089H29.0089H29.0089H29.0089H29.0089H29.0089H29.0089H29.0089H29.0089H29.0089H29.0089H29.0089H29.0089H29.0089H29.0089H29.0089H29.009H29.009H29.009H29.009H29.009H29.009H29.009H29.009H29.009H29.009H29.009H29.009H29.009H29.009H29.009H29.009H29.009H29.009H29.009H29.009H29.009H29.009H29.009H29.009H29.009H29.009H29.009H29.0091H29.0091H29.0091H29.0091H29.0091H29.0091H29.0091H29.0091H29.0091H29.0091H29.0091H29.0091H29.0091H29.0091H29.0091H29.0091H29.0091H29.0091H29.0091H29.0091H29.0091H29.0091H29.0091H29.0091H29.0091H29.0092H29.0092H29.0092H29.0092H29.0092H29.0092H29.0092H29.0092H29.0092H29.0092H29.0092H29.0092H29.0092H29.0092H29.0092H29.0092H29.0092H29.0092H29.0092H29.0092H29.0092H29.0092H29.0092H29.0092H29.0092H29.0092H29.0092H29.0093H29.0093H29.0093H29.0093H29.0093H29.0093H29.0093H29.0093H29.0093H29.0093H29.0093H29.0093H29.0093H29.0093H29.0093H29.0093H29.0093H29.0093H29.0093H29.0093H29.0093H29.0093H29.0093H29.0093H29.0093H29.0093H29.0094H29.0094H29.0094H29.0094H29.0094H29.0094H29.0094H29.0094H29.0094H29.0094H29.0094H29.0094H29.0094H29.0094H29.0094H29.0094H29.0094H29.0094H29.0094H29.0094H29.0094H29.0094H29.0094H29.0094H29.0094H29.0094H29.0095H29.0095H29.0095H29.0095H29.0095H29.0095H29.0095H29.0095H29.0095H29.0095H29.0095H29.0095H29.0095H29.0095H29.0095H29.0095H29.0095H29.0095H29.0095H29.0095H29.0095H29.0095H29.0095H29.0095H29.0095H29.0096H29.0096H29.0096H29.0096H29.0096H29.0096H29.0096H29.0096H29.0096H29.0096H29.0096H29.0096H29.0096H29.0096H29.0096H29.0096H29.0096H29.0096H29.0096H29.0096H29.0096H29.0096H29.0096H29.0096H29.0096H29.0096H29.0097H29.0097H29.0097H29.0097H29.0097H29.0097H29.0097H29.0097H29.0097H29.0097H29.0097H29.0097H29.0097H29.0097H29.0097H29.0097H29.0097H29.0097H29.0097H29.0097H29.0097H29.0097H29.0097H29.0097H29.0097H29.0097H29.0098H29.0098H29.0098H29.0098H29.0098H29.0098H29.0098H29.0098H29.0098H29.0098H29.0098H29.0098H29.0098H29.0098H29.0098H29.0098H29.0098H29.0098H29.0098H29.0098H29.0098H29.0098H29.0098H29.0098H29.0098H29.0098H29.0099H29.0099H29.0099H29.0099H29.0099H29.0099H29.0099H29.0099H29.0099H29.0099H29.0099H29.0099H29.0099H29.0099H29.0099H29.0099H29.0099H29.0099H29.0099H29.0099H29.0099H29.0099H29.0099H29.0099H29.0099H29.0099H29.01H29.01H29.01H29.01H29.01H29.01H29.01H29.01H29.01H29.01H29.01H29.01H29.01H29.01H29.01H29.01H29.01H29.01H29.01H29.01H29.01H29.01H29.01H29.01H29.01H29.01H29.0101H29.0101H29.0101H29.0101H29.0101H29.0101H29.0101H29.0101H29.0101H29.0101H29.0101H29.0101H29.0101H29.0101H29.0101H29.0101H29.0101H29.0101H29.0101H29.0101H29.0101H29.0101H29.0101H29.0101H29.0101H29.0101H29.0102H29.0102H29.0102H29.0102H29.0102H29.0102H29.0102H29.0102H29.0102H29.0102H29.0102H29.0102H29.0102H29.0102H29.0102H29.0102H29.0102H29.0102H29.0102H29.0102H29.0102H29.0102H29.0102H29.0102H29.0102H29.0102H29.0103H29.0103H29.0103H29.0103H29.0103H29.0103H29.0103H29.0103H29.0103H29.0103H29.0103H29.0103H29.0103H29.0103H29.0103H29.0103H29.0103H29.0103H29.0103H29.0103H29.0103H29.0103H29.0103H29.0103H29.0103H29.0103H29.0104H29.0104H29.0104H29.0104H29.0104H29.0104H29.0104H29.0104H29.0104H29.0104H29.0104H29.0104H29.0104H29.0104H29.0104H29.0104H29.0104H29.0104H29.0104H29.0104H29.0104H29.0104H29.0104H29.0104H29.0104H29.0104H29.0105H29.0105H29.0105H29.0105H29.0105H29.0105H29.0105H29.0105H29.0105H29.0105H29.0105H29.0105H29.0105H29.0105H29.0105H29.0105H29.0105H29.0105H29.0105H29.0105H29.0105H29.0105H29.0105H29.0105H29.0105H29.0106H29.0106H29.0106H29.0106H29.0106H29.0106H29.0106H29.0106H29.0106H29.0106H29.0106H29.0106H29.0106H29.0106H29.0106H29.0106H29.0106H29.0106H29.0106H29.0106H29.0106H29.0106H29.0106V26.7637L29.013 26.7637C29.2112 26.7613 29.3691 26.5987 29.367 26.4012L29.367 26.4009L29.3669 26.3907C29.3545 25.3871 29.3387 24.1 29.0319 22.9548C28.723 21.8021 28.1091 20.7572 26.8758 20.3C26.5746 20.1882 26.3395 20.1565 26.1266 20.2004C25.9174 20.2435 25.7546 20.3556 25.5992 20.4679L25.5991 20.4679C25.4587 20.5691 25.3141 20.6733 25.0795 20.7639L25.0794 20.7639C24.847 20.8537 24.603 20.8484 24.3234 20.84C24.3171 20.8398 24.3107 20.8396 24.3043 20.8394C23.9199 20.8275 23.4369 20.8126 23.0305 21.2074L23.0304 21.2074C22.806 21.4254 22.693 21.6474 22.6413 21.859C22.5916 22.0623 22.6012 22.2477 22.6082 22.3825L22.6085 22.3894L22.6085 22.3895C22.6129 22.4748 22.6145 22.5258 22.6111 22.5629C22.6092 22.5832 22.6064 22.5919 22.6052 22.5947C22.2088 23.1148 22.0327 23.6015 22.2006 24.0425C22.3568 24.4527 22.7586 24.6936 23.2377 24.8643C23.7195 25.036 24.3374 25.1562 25.0054 25.2862L25.0176 25.2885C25.6969 25.4207 26.4084 25.5593 27.0603 25.7649C27.7133 25.9708 28.2883 26.2388 28.7021 26.6188ZM22.6046 22.5957C22.6046 22.5957 22.6048 22.5953 22.6052 22.5947L22.6046 22.5957Z" fill="#1B3666" stroke="#1B3666" stroke-width="0.381176"/>
<path d="M22.7255 32.761L22.7255 32.761C22.3473 32.544 22.1761 32.1117 22.139 31.5376C22.1371 31.5346 22.1341 31.5299 22.1292 31.5235C22.1095 31.4975 22.078 31.4643 22.0255 31.4113L22.0254 31.4112L22.0211 31.4067C21.9324 31.317 21.809 31.192 21.7176 31.0194C21.6221 30.8391 21.565 30.6148 21.5929 30.3284L21.5929 30.3283C21.6442 29.8046 22.0125 29.5372 22.2969 29.3307C22.3024 29.3268 22.3078 29.3229 22.3131 29.3189L22.4252 29.4731M22.7255 32.761L23.8113 27.5316M22.7255 32.761C22.8951 32.8583 23.0822 32.8986 23.2782 32.8986C23.5934 32.8986 23.9432 32.7946 24.3113 32.6446C24.6799 32.4943 25.0869 32.2891 25.5196 32.071L25.5254 32.0681L25.5255 32.0681C26.0905 31.7831 26.6817 31.4853 27.2714 31.2663C27.8619 31.047 28.4355 30.9128 28.9642 30.9442L28.9642 30.9443L28.9721 30.9445C28.9892 30.9448 29.008 30.9444 29.0287 30.9421L22.7255 32.761ZM22.4252 29.4731L22.313 29.3191C22.517 29.1705 22.6875 29.0434 22.7925 28.8638L22.957 28.96L22.7924 28.8639C22.8997 28.6799 22.9375 28.5345 22.9751 28.3898L22.9753 28.3892C23.0194 28.2186 23.0722 28.0417 23.2029 27.8881C23.335 27.7328 23.528 27.6216 23.8113 27.5316M22.4252 29.4731C22.1302 29.6874 21.8255 29.9091 21.7826 30.3469M22.4252 29.4731L22.4264 29.4722L21.7826 30.3469M23.8113 27.5316C24.973 27.1625 26.0503 27.5403 26.9766 28.1612C27.897 28.7782 28.6968 29.6539 29.3201 30.3365L29.3267 30.3437M23.8113 27.5316L29.3267 30.3437M29.3267 30.3437C29.3268 30.3438 29.3268 30.3438 29.3269 30.3439M29.3267 30.3437L29.3269 30.3439M29.3269 30.3439C29.4607 30.4902 29.4499 30.717 29.3038 30.8502L29.1754 30.7094L29.3269 30.3439ZM21.7826 30.3469C21.7341 30.8445 21.9808 31.0947 22.1611 31.2773C22.2623 31.3797 22.3242 31.4459 22.3285 31.514C22.3626 32.0714 22.5235 32.4253 22.8204 32.5957C22.9557 32.6734 23.1087 32.708 23.2782 32.708C23.8328 32.708 24.5655 32.3386 25.4388 31.8983L21.7826 30.3469ZM22.3065 30.3977C22.3247 30.2099 22.4508 30.1048 22.7345 29.8986L22.7345 29.8986C22.7376 29.8964 22.7407 29.8941 22.7438 29.8919C22.9551 29.7383 23.2275 29.5404 23.4113 29.2251C23.5699 28.9536 23.6266 28.7333 23.6688 28.5697L23.6691 28.5685C23.6691 28.5684 23.6691 28.5684 23.6691 28.5683C23.7053 28.429 23.7202 28.386 23.7497 28.3519C23.7777 28.3195 23.8392 28.2747 24.0282 28.2147L24.0283 28.2147C24.2659 28.1392 24.5 28.105 24.7308 28.105C25.4391 28.105 26.131 28.4275 26.7836 28.9031C27.3255 29.298 27.8272 29.7886 28.2744 30.2612C27.2262 30.4079 26.1565 30.9472 25.2252 31.4167L25.2028 31.428L25.2028 31.428L25.2012 31.4288C24.7149 31.6739 24.2569 31.9047 23.8686 32.0458C23.6746 32.1163 23.5073 32.1608 23.3692 32.1754C23.2297 32.19 23.1393 32.1721 23.0823 32.1394C23.0362 32.1129 22.9852 32.0583 22.9415 31.949C22.8975 31.839 22.866 31.6852 22.8536 31.4818L22.8536 31.4817C22.8371 31.2124 22.6638 31.0373 22.5477 30.92C22.5436 30.9159 22.5396 30.9118 22.5356 30.9078L22.5356 30.9078C22.4511 30.8221 22.3924 30.7608 22.3529 30.6869C22.3173 30.6202 22.2932 30.534 22.3065 30.3979L22.3065 30.3977Z" fill="#1B3666" stroke="#1B3666" stroke-width="0.381176"/>
<path d="M32.0381 29.3012L32.038 29.3009L32.0348 29.2903C31.7737 28.4033 31.4384 27.2643 31.3956 26.1712C31.3524 25.0703 31.605 23.9778 32.5633 23.2366L32.0381 29.3012ZM32.0381 29.3012C32.0843 29.4572 32.227 29.5581 32.3817 29.5581C32.4151 29.5581 32.4489 29.5536 32.4828 29.5436M32.0381 29.3012L32.4828 29.5436M32.5236 28.3981C32.3146 27.6427 32.1232 26.8078 32.1111 26.0269C32.0971 25.1244 32.3224 24.329 33.0016 23.8035C33.1734 23.6707 33.2444 23.6546 33.2914 23.6546C33.3398 23.6546 33.3938 23.6707 33.5173 23.7135L33.5176 23.7136L33.5188 23.714C33.6833 23.7707 33.9034 23.8467 34.2219 23.8698C34.5897 23.8981 34.9103 23.7881 35.1586 23.7029L35.1699 23.699C35.5006 23.5858 35.6687 23.5374 35.8586 23.6353C35.9911 23.7039 36.0569 23.7753 36.0976 23.8437C36.1419 23.9184 36.164 24.001 36.1935 24.1178L36.3783 24.071L36.1935 24.1175C36.1947 24.1224 36.1959 24.1274 36.1972 24.1325C36.2374 24.2929 36.2964 24.5284 36.5159 24.6873L36.516 24.6874C36.6929 24.8152 36.8139 24.9304 36.8877 25.0307C36.9614 25.131 36.9784 25.2028 36.9752 25.251L36.9752 25.251C36.9714 25.3086 36.9391 25.387 36.8507 25.4892C36.7633 25.5901 36.6348 25.6985 36.4697 25.8144C36.1388 26.0466 35.6948 26.286 35.2233 26.5398L32.5236 28.3981ZM32.5236 28.3981C33.2203 27.6179 34.2808 27.0471 35.2008 26.5519L35.2233 26.5398L32.5236 28.3981ZM34.2744 23.1551L34.2746 23.1551C34.4928 23.1714 34.6981 23.1035 34.9373 23.0211L34.9375 23.0211C34.9435 23.019 34.9495 23.0169 34.9555 23.0148C35.2894 22.9001 35.7152 22.7537 36.1878 22.9988C36.4471 23.1331 36.6089 23.3014 36.7134 23.4771C36.8137 23.6459 36.8563 23.8146 36.8869 23.9362L36.8885 23.9423L36.8885 23.9424C36.9074 24.0174 36.9194 24.061 36.9315 24.091C36.9356 24.1012 36.9387 24.1069 36.9404 24.1097C37.4307 24.4652 37.7197 24.8541 37.6905 25.2984L37.6905 25.2985C37.6632 25.71 37.3738 26.035 37.0009 26.3161C36.6262 26.5985 36.1195 26.8713 35.5736 27.1651L35.5629 27.1709C35.5629 27.1709 35.5629 27.1709 35.5629 27.1709C35.0092 27.469 34.4304 27.7809 33.9217 28.1351C33.4121 28.4899 32.9885 28.8769 32.7346 29.3173L32.7339 29.3185L32.7339 29.3185C32.7229 29.3372 32.7104 29.3547 32.6966 29.3708C32.6529 29.4513 32.5782 29.5156 32.4828 29.5436M34.2744 23.1551L32.4828 29.5436M34.2744 23.1551C34.0507 23.1387 33.8995 23.0869 33.7513 23.0359L33.6892 23.2161L33.7515 23.0359M34.2744 23.1551L33.7515 23.0359M33.7515 23.0359C33.7476 23.0346 33.7437 23.0332 33.7397 23.0319M33.7515 23.0359L33.7397 23.0319M33.7397 23.0319C33.601 22.9839 33.4333 22.9259 33.2369 22.9389M33.7397 23.0319L33.2369 22.9389M33.2369 22.9389C33.0294 22.9526 32.8146 23.042 32.5633 23.2365L33.2369 22.9389ZM36.9415 24.1115C36.9417 24.1117 36.9418 24.1118 36.9418 24.1119L36.9415 24.1115Z" fill="#1B3666" stroke="#1B3666" stroke-width="0.381176"/>
</svg>
