<svg width="42" height="42" viewBox="0 0 42 42" fill="none" xmlns="http://www.w3.org/2000/svg">
<path d="M27.3 12.71C26.51 12.71 25.87 13.35 25.87 14.14C25.87 14.93 26.51 15.57 27.3 15.57C28.09 15.57 28.73 14.93 28.73 14.14C28.73 13.35 28.09 12.71 27.3 12.71Z" fill="white"/>
<path d="M20.93 14.54C17.61 14.54 14.91 17.24 14.91 20.56C14.91 23.88 17.61 26.58 20.93 26.58C24.25 26.58 26.95 23.88 26.95 20.56C26.95 17.24 24.25 14.54 20.93 14.54ZM20.93 24.42C18.8 24.42 17.07 22.69 17.07 20.56C17.07 18.43 18.8 16.7 20.93 16.7C23.06 16.7 24.79 18.43 24.79 20.56C24.79 22.69 23.06 24.42 20.93 24.42Z" fill="white"/>
<path d="M25.7 32.7798H15.94C11.89 32.7798 8.59998 29.4898 8.59998 25.4398V15.6798C8.59998 11.6298 11.89 8.33984 15.94 8.33984H25.7C29.75 8.33984 33.04 11.6298 33.04 15.6798V25.4398C33.04 29.4898 29.75 32.7798 25.7 32.7798ZM15.95 10.6398C13.17 10.6398 10.91 12.8998 10.91 15.6798V25.4398C10.91 28.2198 13.17 30.4798 15.95 30.4798H25.71C28.49 30.4798 30.75 28.2198 30.75 25.4398V15.6798C30.75 12.8998 28.49 10.6398 25.71 10.6398H15.95Z" fill="white"/>
<path d="M20.83 1.81C31.21 1.81 39.62 10.22 39.62 20.6C39.62 30.98 31.21 39.39 20.83 39.39C10.45 39.39 2.02997 30.98 2.02997 20.61C2.02997 10.24 10.45 1.81 20.83 1.81ZM20.83 0C9.45997 0 0.219971 9.24 0.219971 20.61C0.219971 31.98 9.45997 41.22 20.83 41.22C32.2 41.22 41.44 31.98 41.44 20.61C41.44 9.24 32.19 0 20.83 0Z" fill="white"/>
</svg>
