<svg width="38" height="37" viewBox="0 0 38 37" fill="none" xmlns="http://www.w3.org/2000/svg">
<path d="M21.1876 36.0534C21.1315 36.0534 21.0788 36.0534 21.0226 36.0534L16.7589 35.9375C15.8422 35.9129 14.9361 35.6565 14.1459 35.1929L10.3808 32.9978C10.3211 32.9627 10.2825 32.9065 10.2755 32.8398C10.265 32.7731 10.2895 32.7063 10.3352 32.6572L13.0149 29.879L13.2643 28.6603C13.3627 28.1897 13.6015 27.7683 13.9597 27.4487L15.2803 26.2616C15.5929 25.9806 16.0389 25.8823 16.4428 26.0052L19.7863 27.0413C20.0532 27.122 20.3272 27.1677 20.6081 27.1677L25.4725 27.2134C25.5357 27.2134 25.5954 27.1993 25.6515 27.1677L25.9958 26.971C26.1714 26.8727 26.3681 26.82 26.5682 26.82H29.2761C29.6589 26.82 30.0277 26.957 30.3157 27.2063L31.5941 28.3056C31.6503 28.3548 31.717 28.3934 31.7873 28.4145L32.3457 28.6007C32.4932 28.6498 32.6512 28.6744 32.8057 28.6744H34.1685C34.2563 28.6744 34.3335 28.7271 34.3687 28.8079C34.4038 28.8887 34.3862 28.9799 34.3265 29.0467L32.293 31.1961C31.8715 31.6386 31.3974 32.032 30.8811 32.3621L28.3348 33.9883C27.5973 34.4589 26.793 34.8101 25.9431 35.0278L22.7154 35.8602C22.2167 35.9902 21.7039 36.0534 21.1876 36.0534ZM10.8445 32.759L14.3671 34.8136C15.0976 35.2386 15.93 35.4774 16.7729 35.4984L21.0367 35.6144C21.567 35.6319 22.0938 35.5687 22.6066 35.4353L25.8342 34.6029C26.6385 34.3957 27.4006 34.0655 28.0995 33.616L30.6458 31.9898C31.1305 31.6808 31.58 31.3085 31.9734 30.8905L33.6557 29.1134H32.8023C32.5986 29.1134 32.3983 29.0818 32.2017 29.0151L31.6433 28.8289C31.5168 28.7868 31.4009 28.7201 31.3026 28.6358L30.0242 27.5365C29.8134 27.3574 29.5465 27.2555 29.2691 27.2555H26.5612C26.4348 27.2555 26.3119 27.2871 26.2065 27.3503L25.8623 27.547C25.7394 27.6173 25.5989 27.6489 25.4619 27.6524L20.5976 27.6067C20.2745 27.6067 19.9584 27.5541 19.6493 27.4592L16.3058 26.4231C16.0494 26.3459 15.7649 26.4056 15.5682 26.5847L14.2477 27.7718C13.9632 28.0282 13.7665 28.3724 13.6893 28.7482L13.4259 30.0301C13.4188 30.0722 13.3978 30.1074 13.3697 30.139L10.8409 32.759H10.8445Z" fill="#2169B2" stroke="#2169B2" stroke-width="0.5" stroke-linejoin="round"/>
<path d="M7.0865 30.4022C7.04084 30.4022 6.99167 30.3881 6.95655 30.36L5.17592 29.0254C4.82471 28.762 4.52617 28.4459 4.28383 28.0806L3.29694 26.5915C2.97383 26.1033 2.70338 25.5765 2.49617 25.0286L1.74808 23.0583C1.58653 22.6333 1.46711 22.1908 1.38984 21.7448L1.15451 20.3645C1.05266 19.7639 1 19.1493 1 18.5382V16.7751C1 15.5775 1.21422 14.3974 1.63919 13.277L2.28897 11.5491C2.48213 11.0328 2.73148 10.5376 3.0265 10.074L4.67367 7.47852C4.90196 7.12028 5.18293 6.80065 5.50604 6.5267L7.20594 5.10432C7.31833 5.00949 7.45878 4.96031 7.60629 4.96031C7.68004 4.96031 7.74679 4.93222 7.79947 4.88305L8.76179 3.96288C9.12705 3.61518 9.60473 3.422 10.107 3.422C10.2264 3.422 10.3247 3.52033 10.3247 3.63975V4.73904C10.3247 5.06567 10.3844 5.38878 10.5003 5.69433L10.6935 6.19307C10.7742 6.40731 10.8234 6.63209 10.834 6.86038L10.9288 8.82716C10.9393 9.05194 10.9077 9.27672 10.8375 9.49096L10.5741 10.2777C10.5565 10.3339 10.546 10.3936 10.546 10.4533V11.4226C10.546 12.0724 10.6373 12.7151 10.8199 13.3402L11.2554 14.847L11.8279 17.1334L12.0842 18.3345C12.1931 18.8437 12.3442 19.3495 12.5373 19.8342L13.296 21.7623C13.4048 22.0363 13.4048 22.3383 13.303 22.6123L12.8991 23.6764C12.7305 24.119 12.4601 24.5264 12.1159 24.853L10.6899 26.2087C10.6162 26.2789 10.5705 26.3702 10.56 26.465C10.5459 26.5915 10.1983 29.6014 7.1427 30.3951C7.12514 30.3987 7.10757 30.4022 7.0865 30.4022ZM9.88917 3.87508C9.5801 3.92073 9.29212 4.05771 9.06383 4.27898L8.10151 5.19915C7.96805 5.32559 7.79243 5.39933 7.60629 5.39933C7.56414 5.39933 7.52201 5.41337 7.48689 5.44147L5.78703 6.8639C5.49552 7.10623 5.24616 7.3942 5.04246 7.7138L3.39525 10.3093C3.11779 10.7483 2.88249 11.2189 2.69986 11.7071L2.05012 13.4351C1.64623 14.5063 1.43902 15.6337 1.43902 16.7786V18.5417C1.43902 19.1282 1.4882 19.7183 1.58654 20.2943L1.82183 21.6745C1.89207 22.0924 2.00448 22.5069 2.1555 22.9073L2.90359 24.8776C3.10027 25.3938 3.35662 25.8926 3.66218 26.3527L4.6491 27.8418C4.86334 28.1649 5.13027 28.4459 5.43933 28.6777L7.13567 29.9491C9.80489 29.194 10.114 26.5388 10.1245 26.4229C10.1456 26.2227 10.2404 26.0331 10.3879 25.8926L11.8138 24.5369C12.1089 24.2559 12.3442 23.9047 12.4882 23.5219L12.8921 22.4577C12.9588 22.2857 12.9553 22.096 12.8921 21.9239L12.1334 19.9957C11.9332 19.4865 11.7752 18.9596 11.6593 18.4258L11.4064 17.2317L10.8375 14.9628L10.402 13.4632C10.2088 12.7994 10.1139 12.1145 10.1139 11.4226V10.4533C10.1139 10.3444 10.1315 10.239 10.1666 10.1372L10.4265 9.35047C10.4792 9.18891 10.5038 9.01684 10.4968 8.84826L10.402 6.88143C10.3949 6.6988 10.3563 6.51968 10.2896 6.3511L10.0964 5.8524C9.95944 5.49768 9.88917 5.12187 9.88917 4.73904V3.87508Z" fill="#2169B2" stroke="#2169B2" stroke-width="0.5" stroke-linejoin="round"/>
<path d="M14.4268 22.9915C14.346 22.9915 14.2652 22.9529 14.2196 22.8862C14.1669 22.8089 14.1563 22.7106 14.1985 22.6263L14.5638 21.8712C14.6937 21.6042 14.7323 21.3092 14.6796 21.0177L14.1774 18.2361C14.1599 18.1448 14.1493 18.057 14.1388 17.9657L13.9667 16.4801C13.9527 16.3536 13.914 16.2307 13.8543 16.1183L13.4082 15.2719C13.324 15.1103 13.2783 14.9277 13.2783 14.7451V13.3402C13.2783 13.2629 13.2678 13.1892 13.2432 13.1154L13.0922 12.6659C13.0395 12.5114 13.0149 12.3498 13.0149 12.1847V8.52158C13.0149 8.32841 13.05 8.13525 13.1238 7.95613L13.3275 7.44685C13.3837 7.30636 13.4153 7.15889 13.4188 7.00436L13.475 5.35715L13.5909 3.68537C13.5979 3.59757 13.5593 3.51327 13.4925 3.45708C13.3134 3.30957 13.2116 3.08832 13.2116 2.85652V2.54393C13.2116 2.32267 13.3907 2.14003 13.6155 2.14003H14.2336C14.3882 2.14003 14.5357 2.08033 14.6516 1.96794C14.8623 1.76424 15.2205 1.53246 15.7263 1.59919C15.8457 1.61675 15.9791 1.59214 16.1091 1.53244L16.9133 1.17419C17.2013 1.04425 17.5209 0.988055 17.837 1.0021L22.2799 1.23743C22.8172 1.26553 23.3441 1.38143 23.8428 1.58513L24.4258 1.82046C24.6892 1.92582 24.9667 2.01009 25.2441 2.06629L26.1046 2.23838C26.3504 2.28755 26.5928 2.36131 26.8246 2.45964L27.7693 2.853C28.1522 3.01456 28.5034 3.23582 28.809 3.51328L32.3492 6.70931C32.4194 6.77253 32.4581 6.86387 32.451 6.95518C32.4475 7.05001 32.4018 7.13427 32.3246 7.19047L29.3779 9.39258C29.2304 9.50497 29.0864 9.62438 28.9494 9.74731L27.6956 10.9063C27.527 11.0609 27.3935 11.2435 27.2952 11.4507L26.4628 13.2067C26.3083 13.5369 26.1081 13.8424 25.8728 14.1199L24.7068 15.4931C24.5944 15.6266 24.489 15.7671 24.3942 15.9146L23.3897 17.4634L22.1008 19.3951C21.7952 19.8552 21.3035 20.1713 20.7591 20.2626C20.6538 20.2802 20.5554 20.3258 20.4782 20.3996L20.0778 20.7684C19.3648 21.4216 18.4903 21.8887 17.5491 22.1135L16.4498 22.3769C16.4182 22.3839 16.3901 22.4015 16.3725 22.4296C16.1969 22.6649 15.93 22.8159 15.6385 22.8511L14.4654 22.9915C14.4654 22.9915 14.4443 22.9915 14.4373 22.9915H14.4268ZM13.6436 2.57201V2.84949C13.6436 2.95134 13.6892 3.04968 13.7665 3.1129C13.9421 3.2604 14.0369 3.48169 14.0194 3.70998L13.9035 5.37473L13.8473 7.01486C13.8402 7.21857 13.7981 7.41526 13.7243 7.60492L13.5207 8.11416C13.468 8.24411 13.4434 8.37758 13.4434 8.51806V12.1812C13.4434 12.2971 13.4609 12.413 13.4996 12.5219L13.6506 12.9715C13.6892 13.0874 13.7103 13.2102 13.7103 13.3332V14.738C13.7103 14.8504 13.7384 14.9628 13.7911 15.0612L14.2371 15.9076C14.3214 16.0691 14.3776 16.2447 14.3987 16.4239L14.5708 17.9095C14.5813 17.9903 14.5918 18.0746 14.6059 18.1554L15.1081 20.9369C15.1784 21.3198 15.1257 21.7096 14.9571 22.0573L14.7394 22.5139L15.5823 22.4155C15.7544 22.3945 15.9124 22.3032 16.0143 22.1662C16.095 22.0573 16.211 21.9836 16.3409 21.9519L17.4402 21.6885C18.3077 21.4813 19.1155 21.0493 19.7757 20.4452L20.1761 20.0765C20.3166 19.9465 20.4922 19.8622 20.6819 19.8306C21.1104 19.7604 21.4897 19.511 21.732 19.1528L23.0174 17.2246L24.0219 15.6758C24.1273 15.5142 24.2432 15.3562 24.3696 15.2087L25.5356 13.8354C25.7464 13.5861 25.9255 13.3121 26.066 13.0171L26.8983 11.2611C27.0213 11.0047 27.1899 10.7764 27.3971 10.5797L28.6509 9.42066C28.7984 9.28369 28.953 9.15375 29.1145 9.03433L31.9382 6.92354L28.5104 3.8329C28.24 3.58705 27.9309 3.39387 27.5937 3.25339L26.649 2.86003C26.4453 2.77574 26.231 2.70899 26.0133 2.66685L25.1528 2.49476C24.8473 2.43505 24.5452 2.34373 24.2572 2.22783L23.6742 1.99255C23.2211 1.80992 22.7435 1.70454 22.2518 1.67645L17.809 1.44112C17.5631 1.42707 17.3138 1.47273 17.0855 1.57458L16.2812 1.93283C16.0775 2.02414 15.8632 2.05927 15.663 2.03118C15.3961 1.99605 15.1573 2.08033 14.9501 2.28052C14.7534 2.47018 14.497 2.57553 14.2266 2.57553H13.6436V2.57201Z" fill="#2169B2" stroke="#2169B2" stroke-width="0.5" stroke-linejoin="round"/>
<path d="M34.4845 27.6803H33.6311C33.4414 27.6803 33.2553 27.6241 33.0972 27.5187C33.0024 27.4555 32.9041 27.4169 32.8022 27.4064L31.9944 27.308C31.9558 27.3045 31.9171 27.2869 31.8855 27.2624L30.9443 26.5143L29.6659 25.9734C29.5886 25.9383 29.5043 25.9207 29.4165 25.9172L28.823 25.8961C28.4612 25.8821 28.0995 25.9172 27.7448 25.998L26.2345 26.3457C26.0976 26.3773 25.9571 26.3914 25.8166 26.3914H23.2211C22.8875 26.3914 22.5538 26.3457 22.2342 26.2509L20.9874 25.8891C20.8996 25.8645 20.8364 25.7838 20.8294 25.6924L20.7065 23.8661L20.3658 22.9073C20.3236 22.7949 20.3552 22.665 20.443 22.5807L20.8961 22.1487C20.8961 22.1487 20.9277 22.1241 20.9453 22.1136L21.6056 21.7588L21.9638 20.5542C22.0024 20.4278 22.0832 20.3189 22.1921 20.2486L23.2984 19.5286C23.4916 19.4022 23.6391 19.2231 23.7269 19.0124L24.5066 17.1264C24.5066 17.1264 24.5136 17.1123 24.5171 17.1053C24.6435 16.87 24.8016 16.6557 24.9842 16.4661L26.2661 15.1315C26.3891 15.0156 26.4734 14.8786 26.519 14.7241L26.6736 14.2113C26.7403 13.997 26.8667 13.8109 27.0459 13.6704L27.4778 13.3368C27.6254 13.2244 27.7131 13.0488 27.7202 12.8626V12.7678C27.7307 12.4693 27.8712 12.1883 28.103 11.9987L30.86 9.77898L33.1324 7.85083C33.178 7.81219 33.2412 7.79112 33.3009 7.80165C33.3606 7.80868 33.4169 7.8438 33.452 7.89297L35.4433 10.7273C35.647 11.0188 35.7981 11.3419 35.8929 11.6861L36.8763 15.3246C36.9641 15.6513 37.0062 15.9849 36.9992 16.3221L36.8973 20.9195C36.8868 21.3304 36.8341 21.7448 36.7393 22.1452L36.072 24.9373C35.9947 25.264 35.8683 25.5801 35.6962 25.868L34.7163 27.5328C34.6672 27.6206 34.5723 27.6733 34.474 27.6733L34.4845 27.6803ZM32.1068 26.8795L32.8549 26.9709C33.0235 26.9919 33.1886 27.0516 33.3291 27.1465C33.4274 27.2132 33.5257 27.2413 33.6311 27.2413H34.3967L35.331 25.6538C35.4785 25.4009 35.5909 25.127 35.6576 24.8425L36.3249 22.0504C36.4127 21.6781 36.4619 21.2988 36.4724 20.916L36.5743 16.3186C36.5813 16.0235 36.5461 15.7285 36.4689 15.444L35.4855 11.8055C35.4047 11.5105 35.2747 11.233 35.0991 10.9837L33.2447 8.34605L31.1515 10.1232L28.391 12.3464C28.2575 12.4552 28.1767 12.6133 28.1732 12.7854V12.8837C28.1627 13.2033 28.0117 13.4983 27.7588 13.6915L27.3268 14.0252C27.2214 14.106 27.1442 14.2148 27.1055 14.3447L26.951 14.8575C26.8843 15.0823 26.7578 15.286 26.5857 15.4476L25.3108 16.7752C25.1563 16.9332 25.0264 17.1158 24.9175 17.309L24.1448 19.1845C24.0219 19.4795 23.8182 19.7289 23.5478 19.901L22.4415 20.6209C22.4169 20.635 22.4028 20.6596 22.3923 20.6841L22.0059 21.9766C21.9884 22.0328 21.9498 22.0785 21.9006 22.1066L21.1841 22.4894L20.8153 22.8406L21.1384 23.7467C21.1455 23.7643 21.149 23.7854 21.1525 23.8064L21.2649 25.5098L22.3642 25.8294C22.6451 25.9102 22.9367 25.9523 23.2282 25.9523H25.8236C25.929 25.9523 26.0379 25.9418 26.1432 25.9172L27.6534 25.5695C28.0433 25.4782 28.4437 25.4431 28.8476 25.4571L29.4411 25.4782C29.5816 25.4852 29.7151 25.5133 29.845 25.5695L31.148 26.1209C31.1656 26.1279 31.1831 26.1385 31.2007 26.1525L32.1173 26.8831L32.1068 26.8795Z" fill="#2169B2" stroke="#2169B2" stroke-width="0.5" stroke-linejoin="round"/>
<path d="M19.4843 26.1104C19.4843 26.1104 19.4492 26.1104 19.4316 26.1034L16.8889 25.4818L14.7254 25.2851C14.6376 25.278 14.5604 25.2148 14.5358 25.1306C14.5112 25.0463 14.5357 24.9549 14.606 24.8952L16.3058 23.4904C16.3375 23.4623 16.3761 23.4482 16.4183 23.4412L17.809 23.2656L18.6344 22.6018C18.6906 22.5561 18.7644 22.5421 18.8311 22.5632C18.8978 22.5807 18.954 22.6334 18.9786 22.7001L19.5721 24.3438C19.5792 24.3614 19.5827 24.3824 19.5862 24.4L19.7021 25.8681C19.7091 25.9383 19.6775 26.0051 19.6248 26.0507C19.5862 26.0859 19.5335 26.1034 19.4843 26.1034V26.1104ZM15.2979 24.8987L16.9451 25.0497C16.9451 25.0497 16.9661 25.0497 16.9767 25.0568L19.242 25.6117L19.1542 24.4738L18.673 23.1462L18.0373 23.6554C18.0057 23.68 17.9671 23.6976 17.9284 23.7011L16.5377 23.8732L15.2979 24.8952V24.8987Z" fill="#2169B2" stroke="#2169B2" stroke-width="0.5" stroke-linejoin="round"/>
</svg>