<svg width="42" height="42" viewBox="0 0 42 42" fill="none" xmlns="http://www.w3.org/2000/svg">
<path fill-rule="evenodd" clip-rule="evenodd" d="M29.5032 12.4878C27.2471 10.2398 24.2467 9.00132 21.0502 9C14.4635 9 9.10288 14.3348 9.10024 20.8917C9.09935 22.9878 9.64954 25.0339 10.6953 26.8374L9 33L15.3349 31.3462C17.0804 32.2938 19.0455 32.7932 21.0453 32.7938H21.0503C27.6363 32.7938 32.9975 27.4585 33 20.9013C33.0013 17.7234 31.7595 14.7356 29.5032 12.4878ZM21.0502 30.7853H21.0461C19.2639 30.7846 17.516 30.3079 15.9909 29.4075L15.6283 29.1932L11.8691 30.1746L12.8725 26.527L12.6363 26.153C11.642 24.5792 11.117 22.7602 11.1179 20.8925C11.12 15.4425 15.5757 11.0086 21.0542 11.0086C23.7071 11.0095 26.2009 12.039 28.0761 13.9074C29.9513 15.7758 30.9834 18.2593 30.9825 20.9005C30.9801 26.3509 26.5247 30.7853 21.0502 30.7853ZM26.4982 23.3821C26.1997 23.2333 24.7317 22.5146 24.4579 22.4153C24.1844 22.3162 23.9851 22.2668 23.7863 22.5642C23.5871 22.8615 23.015 23.531 22.8407 23.7292C22.6665 23.9275 22.4925 23.9524 22.1938 23.8036C21.8952 23.6549 20.9332 23.341 19.7926 22.3286C18.9051 21.5407 18.3059 20.5676 18.1316 20.2702C17.9576 19.9726 18.1301 19.8272 18.2626 19.6638C18.5858 19.2643 18.9095 18.8455 19.009 18.6473C19.1086 18.449 19.0587 18.2754 18.984 18.1267C18.9095 17.978 18.3123 16.5154 18.0636 15.9202C17.821 15.341 17.5751 15.4192 17.3917 15.4102C17.2177 15.4015 17.0185 15.3998 16.8194 15.3998C16.6204 15.3998 16.2969 15.474 16.0231 15.7717C15.7495 16.0692 14.9782 16.788 14.9782 18.2506C14.9782 19.7133 16.0481 21.1263 16.1974 21.3246C16.3466 21.5229 18.3029 24.5244 21.2981 25.8114C22.0105 26.1179 22.5665 26.3005 23.0003 26.4375C23.7156 26.6637 24.3664 26.6317 24.8809 26.5553C25.4547 26.4699 26.6473 25.8363 26.8964 25.1423C27.1451 24.4481 27.1451 23.8532 27.0704 23.7292C26.9959 23.6052 26.7967 23.531 26.4982 23.3821Z" fill="white"/>
<path d="M20.61 2.12836C30.99 2.12836 39.4 10.5384 39.4 20.9184C39.4 31.2984 30.99 39.7084 20.61 39.7084C10.23 39.7084 1.81 31.2984 1.81 20.9284C1.81 10.5584 10.23 2.12836 20.61 2.12836ZM20.61 0.318359C9.24 0.318359 0 9.55836 0 20.9284C0 32.2984 9.24 41.5384 20.61 41.5384C31.98 41.5384 41.22 32.2984 41.22 20.9284C41.22 9.55836 31.97 0.318359 20.61 0.318359Z" fill="white"/>
</svg>
